<svg xmlns="http://www.w3.org/2000/svg" xmlns:xlink="http://www.w3.org/1999/xlink" width="128" height="128" viewBox="0 0 128 128">
  <defs>
    <clipPath id="clip-path">
      <rect id="Rect치ngulo_714" data-name="Rect치ngulo 714" width="106.912" height="106.391" fill="none"/>
    </clipPath>
  </defs>
  <g id="Grupo_791" data-name="Grupo 791" transform="translate(-1465 -5584)">
    <circle id="Elipse_111" data-name="Elipse 111" cx="64" cy="64" r="64" transform="translate(1465 5584)" fill="#fff"/>
    <g id="Grupo_721" data-name="Grupo 721" transform="translate(1474.839 5594.804)">
      <g id="Grupo_720" data-name="Grupo 720" clip-path="url(#clip-path)">
        <path id="Trazado_698" data-name="Trazado 698" d="M30.9,550.133q-1.388-3.358,1.671-4.622,2.95-1.22,4.4,1.974l.438,1.041,2.476-1.024.85,2.056-8.6,3.554Zm4.491-1.857a1.287,1.287,0,0,0-1.926-.72,1.287,1.287,0,0,0-.856,1.87l.381.923,2.782-1.149Z" transform="translate(-26.635 -476.628)" fill="#00b9d7"/>
        <path id="Trazado_699" data-name="Trazado 699" d="M15.506,448.352l.4,2.254-1.6.991.624,3.487,1.84.376.4,2.254L7.362,455.7l-.368-2.057Zm-2.373,6.376-.39-2.178L9.931,454.18Z" transform="translate(-6.115 -391.979)" fill="#00b9d7"/>
        <path id="Trazado_700" data-name="Trazado 700" d="M.133,364.836l5.781-3.931L.486,360.5l.167-2.219,9.278.7L9.8,360.723,4,364.672l5.467.412L9.3,367.3,0,366.6Z" transform="translate(0 -313.231)" fill="#00b9d7"/>
        <path id="Trazado_701" data-name="Trazado 701" d="M31.9,274.116l-.744,2.166-1.876.091-1.149,3.351,1.426,1.223-.743,2.166-7.6-6.531.677-1.976Zm-5.172,4.42.718-2.093-3.251.059Z" transform="translate(-18.541 -239.651)" fill="#00b9d7"/>
        <path id="Trazado_702" data-name="Trazado 702" d="M54.55,179.053a4.88,4.88,0,0,1,3.026-2.2,4.4,4.4,0,0,1,3.548.644q3.58,2.339,1.46,6.247l.016.011-2.073,3.172-7.794-5.092Zm6.2,4.076q1.43-2.189-.862-3.687-2.249-1.469-3.689.651l-.607.929,4.579,2.992Z" transform="translate(-46.103 -154.505)" fill="#00b9d7"/>
        <path id="Trazado_703" data-name="Trazado 703" d="M118.88,98.363l1.334,1.391-2.956,2.833,1.173,1.222,2.126-2.038,1.293,1.349-2.127,2.039,1.271,1.325,2.956-2.833,1.378,1.438L120.8,109.43l-6.448-6.725Z" transform="translate(-99.973 -85.995)" fill="#00b9d7"/>
        <path id="Trazado_704" data-name="Trazado 704" d="M193.316,61.027l-2.384,1.437-3.693-1.5-.962.58,1.647,2.733-1.906,1.148-4.8-7.969,3.384-2.039a2.615,2.615,0,0,1,2.355-.153,3.013,3.013,0,0,1,.962.542,2.756,2.756,0,0,1,.4.387c.032.036.061.072.087.106.045.059.075.1.088.122l.272.464a2.03,2.03,0,0,1,.107.253,2.959,2.959,0,0,1,.141.537A2.866,2.866,0,0,1,189,58.766a2.788,2.788,0,0,1-.129.464Zm-6.667-1.573a1.18,1.18,0,0,0,.149-1.613,1.157,1.157,0,0,0-1.485-.6l-1.195.719,1.336,2.218Z" transform="translate(-158.433 -48.126)" fill="#00b9d7"/>
        <rect id="Rect치ngulo_713" data-name="Rect치ngulo 713" width="2.245" height="9.31" transform="translate(33.643 3.553) rotate(-20.458)" fill="#00b9d7"/>
        <path id="Trazado_705" data-name="Trazado 705" d="M337.4,11.336l-2.258.382-.975-1.605-3.493.591-.394,1.837-2.258.381,2.107-9.8,2.06-.349ZM331.044,8.9l2.181-.369-1.6-2.828Z" transform="translate(-286.776 -2.426)" fill="#00b9d7"/>
        <path id="Trazado_706" data-name="Trazado 706" d="M464.279.354,463.106,7.6l3.517.568-.314,1.941L460.6,9.184,462.089,0Z" transform="translate(-402.69 0)" fill="#00b9d7"/>
        <path id="Trazado_707" data-name="Trazado 707" d="M527.874,35.3l-2.127-.851,0-1.878-3.289-1.316-1.293,1.362-2.126-.851,6.9-7.265,1.94.775Zm-4.155-5.387,2.054.822.106-3.249Z" transform="translate(-453.782 -21.423)" fill="#00b9d7"/>
        <path id="Trazado_708" data-name="Trazado 708" d="M654.6,106.579l.283,2.177c-.1.011-.2.019-.3.024a4.873,4.873,0,1,1,4.615-5.116c0,.012,0,.027,0,.045l-2.187.09a.97.97,0,0,0,0-.128,2.451,2.451,0,0,0-2.723-2.455,2.976,2.976,0,0,0-2.651,2.938,2.45,2.45,0,0,0,2.722,2.455c.082-.007.161-.017.237-.03" transform="translate(-567.801 -86.589)" fill="#00b9d7"/>
        <path id="Trazado_709" data-name="Trazado 709" d="M708.789,162.622l-1.574,1.111-2.361-3.345-1.383.977,1.7,2.407-1.526,1.078-1.7-2.407-1.5,1.06,2.361,3.344L701.178,168l-3.619-5.125,7.611-5.374Z" transform="translate(-609.853 -137.694)" fill="#00b9d7"/>
        <path id="Trazado_710" data-name="Trazado 710" d="M746.834,233.517l-6.716,2.956,1.435,3.26-1.8.792-2.329-5.291,8.515-3.749Z" transform="translate(-644.706 -202.38)" fill="#00b9d7"/>
        <path id="Trazado_711" data-name="Trazado 711" d="M772.925,313.83l-1.884.408-.867-4-1.655.36.625,2.879-1.827.4-.625-2.879-1.794.389.868,4-1.946.422-1.33-6.132L771.6,307.7Z" transform="translate(-666.62 -269.011)" fill="#00b9d7"/>
        <path id="Trazado_712" data-name="Trazado 712" d="M775.331,390.9l1.771,1.113a3.586,3.586,0,0,0-.594,1.8,1.542,1.542,0,0,0,.254.846.618.618,0,0,0,.512.343.632.632,0,0,0,.084-.008q.556-.1.842-1.246.61-2.47,2.466-2.824a2.958,2.958,0,0,1,.5-.054,2.5,2.5,0,0,1,2.155,1.237,3.635,3.635,0,0,1,.669,2.046,5.616,5.616,0,0,1-.8,2.777l-1.808-1.06a3.482,3.482,0,0,0,.511-1.67,1.531,1.531,0,0,0-.26-.853.54.54,0,0,0-.589-.314q-.551.106-.837,1.252-.615,2.483-2.484,2.824a3.107,3.107,0,0,1-.48.047,2.506,2.506,0,0,1-2.195-1.288,3.6,3.6,0,0,1-.59-1.982,5.667,5.667,0,0,1,.873-2.986" transform="translate(-677.083 -341.723)" fill="#00b9d7"/>
        <path id="Trazado_713" data-name="Trazado 713" d="M776.6,476.26l-1.951-.371.5-2.62-7.2-1.368.419-2.206,7.2,1.368.5-2.62,1.951.371Z" transform="translate(-671.392 -409.545)" fill="#00b9d7"/>
        <path id="Trazado_714" data-name="Trazado 714" d="M747.427,543.9l-1.777-.745,1.583-3.776-1.562-.654-1.139,2.717-1.723-.723L743.948,538l-1.693-.709-1.583,3.776-1.837-.77,2.425-5.787,8.593,3.6Z" transform="translate(-645.939 -467.302)" fill="#00b9d7"/>
        <path id="Trazado_715" data-name="Trazado 715" d="M97.742,633.907a4.879,4.879,0,0,1,1.345,3.491,4.4,4.4,0,0,1-1.536,3.262q-3.182,2.855-6.412-.2l-.015.013-2.531-2.82,6.93-6.218ZM92.2,638.849q1.746,1.946,3.784.117,2-1.794.322-3.732l-.741-.826L91.5,638.062Z" transform="translate(-77.454 -552.042)" fill="#00b9d7"/>
        <path id="Trazado_716" data-name="Trazado 716" d="M170.712,696.512l-1.117,1.57-3.335-2.373-.982,1.38,2.4,1.708-1.083,1.523-2.4-1.708-1.064,1.5,3.335,2.374-1.154,1.623-5.113-3.637,5.4-7.592Z" transform="translate(-140.056 -605.758)" fill="#00b9d7"/>
        <path id="Trazado_717" data-name="Trazado 717" d="M230.995,745.279l1.758-1.133a3.593,3.593,0,0,0,1.38,1.3,1.549,1.549,0,0,0,.874.128.615.615,0,0,0,.526-.319.518.518,0,0,0,.028-.08q.145-.546-.773-1.291-1.98-1.6-1.515-3.428a2.926,2.926,0,0,1,.165-.48,2.494,2.494,0,0,1,2.033-1.429,3.639,3.639,0,0,1,2.137.259,5.625,5.625,0,0,1,2.176,1.9l-1.726,1.189a3.477,3.477,0,0,0-1.3-1.169,1.525,1.525,0,0,0-.882-.125.614.614,0,0,0-.506.321.549.549,0,0,0-.028.08q-.137.543.781,1.288,1.989,1.607,1.508,3.446a3.056,3.056,0,0,1-.161.454,2.505,2.505,0,0,1-2.1,1.443,3.61,3.61,0,0,1-2.046-.3,5.667,5.667,0,0,1-2.336-2.055" transform="translate(-201.951 -645.637)" fill="#00b9d7"/>
        <path id="Trazado_718" data-name="Trazado 718" d="M314.025,758.876a4.882,4.882,0,0,1,3.161,2,4.405,4.405,0,0,1,.71,3.535q-.854,4.19-5.268,3.661l0,.019-3.713-.757,1.859-9.123Zm-1.5,7.269q2.563.522,3.109-2.16.536-2.633-1.966-3.189l-1.087-.221-1.092,5.359Z" transform="translate(-270.071 -662.881)" fill="#00b9d7"/>
        <path id="Trazado_719" data-name="Trazado 719" d="M414.463,771.081l.039,1.926-4.093.082.034,1.693,2.945-.059.038,1.868-2.945.06.037,1.836,4.093-.082.039,1.992-6.273.126-.187-9.315Z" transform="translate(-356.868 -674.13)" fill="#00b9d7"/>
        <path id="Trazado_720" data-name="Trazado 720" d="M516.626,752.451l2.77,8.889-2.118.661-2.189-7.025-1.394.434-.581-1.864Z" transform="translate(-448.599 -657.843)" fill="#00b9d7"/>
        <path id="Trazado_721" data-name="Trazado 721" d="M572.313,730.256a3.072,3.072,0,0,1,1.863,1.562,3.642,3.642,0,0,1,.19.442,6.657,6.657,0,0,1,.293,2.824q-.049.688-.212,3.73l-2.116,1.1.225-3.635a4.067,4.067,0,0,1-2.265.132,3.392,3.392,0,0,1-1.832-1.585l-.021-.04a3.314,3.314,0,0,1-.214-2.4,3.461,3.461,0,0,1,1.688-1.928,3.078,3.078,0,0,1,2.4-.209m-2.193,2.58a1.577,1.577,0,0,0,.892,1.715,1.006,1.006,0,0,0,.883-.014,1,1,0,0,0,.524-.727,1.45,1.45,0,0,0-.048-.749c-.029-.067-.056-.124-.08-.17l-.035-.069.005-.018a1.453,1.453,0,0,0-.734-.709.982.982,0,0,0-1.407.741" transform="translate(-496.668 -638.306)" fill="#00b9d7"/>
        <path id="Trazado_722" data-name="Trazado 722" d="M632.463,688.165a2.985,2.985,0,0,1,2.113.7,3.388,3.388,0,0,1,.48.489,3.042,3.042,0,0,1,.609,1.364,2.907,2.907,0,0,1-.137,1.666,3.626,3.626,0,0,1-1.141,1.4,3.417,3.417,0,0,1-1.625.727,3.611,3.611,0,0,1-1.874-.22l.33-.941.327-.956c.041.024.079.043.113.06s.073.036.106.05a1.071,1.071,0,0,0,.291.116,1.625,1.625,0,0,0,.314.04,1.169,1.169,0,0,0,.422-.062,1.438,1.438,0,0,0,.611-.452,1.062,1.062,0,0,0,.145-.256,1.284,1.284,0,0,0-.173-1.3,1.286,1.286,0,0,0-1.787-.206l-.1.091a1.2,1.2,0,0,0-.244.308,1.891,1.891,0,0,0-.158.417l-.039.179-.044.184-.918.075-.924.078-1.167-1.982-1.161-1.985,3.826-3.028,1.137,1.4-2.36,1.88.388.686.391.692a3.6,3.6,0,0,1,.552-.546,3.286,3.286,0,0,1,.461-.307,2.965,2.965,0,0,1,1.237-.361" transform="translate(-548.018 -598.628)" fill="#00b9d7"/>
        <path id="Trazado_723" data-name="Trazado 723" d="M685.953,641a3.919,3.919,0,0,1,.347.263,3.788,3.788,0,0,1,1.252,2.725l.2,2.7,2.059-2.4,1.422,1.221-4.138,4.819-1.112-.955-.454-4.819a2.22,2.22,0,0,0-.625-1.5.769.769,0,0,0-.078-.059q-.882-.688-1.512-.041-.514.8.445,1.622l-1.474,1.718q-2.379-2.11-.345-4.52a2.907,2.907,0,0,1,4.013-.779" transform="translate(-595.378 -559.977)" fill="#00b9d7"/>
        <path id="Trazado_724" data-name="Trazado 724" d="M598.832,502.419a3.506,3.506,0,1,1-3.51-3.54,3.359,3.359,0,0,1,3.51,3.54m-3.51,2.619a2.623,2.623,0,1,0-2.473-2.619,2.412,2.412,0,0,0,2.473,2.619m.844-2.133c1.29-.291,1.028-2.27-.543-2.27h-1.7v3.559h.941v-1.106h.329l.844,1.106h1.008v-.2Zm-.543-1.426a.407.407,0,1,1,0,.815h-.756v-.815Z" transform="translate(-517.41 -436.154)" fill="#00b9d7"/>
        <path id="Trazado_725" data-name="Trazado 725" d="M234.717,270.749a23.4,23.4,0,0,0-9.953-3.075l.158-.188h-.065c.262-.286.413-.446.558-.61s.277-.313.414-.472l.606-.724a20.859,20.859,0,0,0,2.619-4.025,33.1,33.1,0,0,0,2.671-9.957c.438-3.073.731-6.168,1.19-9.237a9.441,9.441,0,0,1,1.775-4.472,10.167,10.167,0,0,1,.987-1,3.533,3.533,0,0,1,1.761-.9,1.721,1.721,0,0,1,1.8.842,3.013,3.013,0,0,1,.383,1.507,5.481,5.481,0,0,1-1.328,3.646,2.651,2.651,0,0,1-1.123.875,1.283,1.283,0,0,1-1.605-.47c-.029-.04-.062-.079-.1-.121l-.162-.2-.158.086-.038.018a.364.364,0,0,0-.109.072,2.169,2.169,0,0,0-.6,1.778,2.2,2.2,0,0,0,1.009,1.619,3.192,3.192,0,0,0,.935.4v0s.044.01.123.025a3.613,3.613,0,0,0,.477.07,7.515,7.515,0,0,0,7.191-3.194c.162-.236.307-.468.437-.695,0,0,3.155-4.91-.868-7.352a3.993,3.993,0,0,0-1.287-.633,10.469,10.469,0,0,0-7.228.124h0c-.129.048-.259.1-.389.151a17.659,17.659,0,0,0-7.869,6.812c-2.631,3.915-3.663,8.357-4.027,12.987-.179,2.273-.3,4.552-.473,6.825a11.992,11.992,0,0,1-2.072,6.016,1.3,1.3,0,0,1-.9.6,13.513,13.513,0,0,0-5.354,2.035,5.307,5.307,0,0,0-2.548,3.979,2.6,2.6,0,0,0,2.166,2.756,5.544,5.544,0,0,0,2.573-.386,11.263,11.263,0,0,0,3.4-2.23,15.093,15.093,0,0,0,1.461-1.662,30.414,30.414,0,0,0,18.58,6.2c8.9-.032,14.582-3.094,17.192-5.166l.733-3.852c-7.013,4.889-15.029,5.789-22.942,1.191" transform="translate(-184.948 -204.376)" fill="#00b9d7"/>
        <path id="Trazado_726" data-name="Trazado 726" d="M412.971,334.236c-.407,1.135-.485,1.41-.508,1.517-.173.813.351.991.516,1.026a2.624,2.624,0,0,0,1.091-.1l3.688-.873a3.439,3.439,0,0,0,1.441-.63,2.321,2.321,0,0,0,.66-1.314,5.138,5.138,0,0,0-.878-4.3,6.543,6.543,0,0,0-4.06-2.438c-3.556-.759-7.281.314-11.07,3.19a17.805,17.805,0,0,0-7.025,10.575,8.835,8.835,0,0,0,7.019,10.833,13.385,13.385,0,0,0,2.791.3,14.2,14.2,0,0,0,4.146-.633,33.79,33.79,0,0,0,7.981-3.927l.108-.07.293-1.375.516-2.759-.609.417a27.709,27.709,0,0,1-5.441,3.035,7.842,7.842,0,0,1-4.513.389,5.127,5.127,0,0,1-3.739-2.824,8.438,8.438,0,0,1-.448-5.631,14.357,14.357,0,0,1,3.192-6.588c1.521-1.731,2.942-2.47,4.224-2.2a1.39,1.39,0,0,1,1.043.9,3.357,3.357,0,0,1,.08,1.983c-.027.124-.134.484-.5,1.5" transform="translate(-346.72 -285.789)" fill="#00b9d7"/>
      </g>
    </g>
  </g>
</svg>
